<svg xmlns="http://www.w3.org/2000/svg" width="156" height="62" viewBox="0 0 156 62">
  <g fill="none" fill-rule="evenodd" transform="translate(0 .008)">
    <path fill="#FFF" fill-rule="nonzero" d="M50.2466713,3.37470944 L50.2466713,44.4951185 L56.7084499,44.4951185 L56.7084499,3.37470944 L50.2466713,3.37470944 Z M81.7918995,13.2436076 C81.7918995,24.9922959 94.4217394,26.5783689 94.4217394,35.0374245 C94.4217394,37.9745965 93.1293837,39.0319785 91.0733633,39.0319785 C89.0173428,39.0319785 87.7249871,37.9745965 87.7249871,35.0374245 L87.7249871,32.1002524 L81.6156692,32.1002524 L81.6156692,34.6262204 C81.6156692,41.2054858 84.9053019,44.9650661 91.2495936,44.9650661 C97.5938853,44.9650661 100.883518,41.2054858 100.883518,34.6262204 C100.883518,22.877532 88.2536781,21.2914591 88.2536781,12.8324035 C88.2536781,9.89523145 89.4285469,8.77910606 91.4845673,8.77910606 C93.5405878,8.77910606 94.7154566,9.89523145 94.7154566,12.8324035 L94.7154566,14.5359633 L100.824775,14.5359633 L100.824775,13.2436076 C100.824775,6.66434217 97.5938853,2.9047619 91.308337,2.9047619 C85.0227888,2.9047619 81.7918995,6.66434217 81.7918995,13.2436076 Z M69.8164375,3.37470944 L60.3,3.37470944 L60.3,44.4951185 L66.7617786,44.4951185 L66.7617786,29.0455934 L69.8164375,29.0455934 C76.2782161,29.0455934 79.450362,25.4622435 79.450362,18.882978 L79.450362,13.5373248 C79.450362,6.95805937 76.2782161,3.37470944 69.8164375,3.37470944 Z M66.7617786,9.2490536 L69.8164375,9.2490536 C71.872458,9.2490536 72.9885834,10.1889487 72.9885834,13.1261207 L72.9885834,19.2941821 C72.9885834,22.2313542 71.872458,23.1712493 69.8164375,23.1712493 L66.7617786,23.1712493 L66.7617786,9.2490536 Z M111.692311,3.37470944 L105.230533,3.37470944 L105.230533,34.6849638 C105.230533,41.2642293 108.520165,45.0238095 114.864457,45.0238095 C121.208749,45.0238095 124.498382,41.2642293 124.498382,34.6849638 L124.498382,3.37470944 L118.389064,3.37470944 L118.389064,35.0961679 C118.389064,38.03334 117.096708,39.0907219 115.040687,39.0907219 C112.984667,39.0907219 111.692311,38.03334 111.692311,35.0961679 L111.692311,3.37470944 Z M142.591362,32.5701999 L146.99712,3.37470944 L155.984866,3.37470944 L155.984866,44.4951185 L149.875548,44.4951185 L149.875548,15.0059109 L145.411047,44.4951185 L139.301729,44.4951185 L134.484767,15.417115 L134.484767,44.4951185 L128.845396,44.4951185 L128.845396,3.37470944 L137.833143,3.37470944 L142.591362,32.5701999 Z"/>
    <g fill="#FAB26C" transform="rotate(90 22.654 22.654)">
      <path fill-opacity=".611" d="M26.7712264,34.390783 C20.1636837,25.6175872 21.9196588,13.1498674 30.6921124,6.54232474 C31.3504175,6.04655495 32.0346986,5.61386963 32.7301122,5.21161329 C26.0275717,1.33674186 17.3790605,1.5913063 10.8049155,6.54232474 C2.03246191,13.1498674 0.27648685,25.6175872 6.88402953,34.390783 C12.9958024,42.5056737 24.1157409,44.6008206 32.6937458,39.6431226 C30.4516492,38.346551 28.4270085,36.5898338 26.7712264,34.390783"/>
      <path d="M22.3916791,44.4160202 C15.4382851,44.4160202 9.05413565,41.2343359 4.87720089,35.6873546 C1.35560255,31.0116814 -0.133191186,25.2450177 0.682454035,19.4501516 C1.49809926,13.6560276 4.52244346,8.52540394 9.19663236,5.00528994 C13.0277157,2.11973159 17.5801887,0.596055848 22.3627345,0.596055848 C29.3161286,0.596055848 35.6995358,3.776998 39.8786971,9.32472141 C43.4002954,13.9989103 44.8898313,19.7648318 44.0734439,25.5604401 C43.2577987,31.3553063 40.2327123,36.4866721 35.5592656,40.0067861 C31.7281822,42.8916023 27.1749671,44.4160202 22.3916791,44.4160202 L22.3916791,44.4160202 Z M22.3649423,7.25767535 C19.0383727,7.25767535 15.8708145,8.31817383 13.2043641,10.3270392 C9.95128181,12.7768287 7.84738966,16.3473003 7.27976324,20.3802354 C6.7115033,24.412537 7.74856185,28.4258332 10.1989849,31.6789154 C13.1055362,35.5395354 17.5496204,37.7536585 22.3896493,37.7536585 C25.7168524,37.7536585 28.8850441,36.691893 31.5508611,34.6849282 C34.8039433,32.2345051 36.908469,28.6640336 37.4760954,24.631732 C38.0437218,20.5981634 37.0072968,16.5861342 34.5568738,13.3324184 C31.6490554,9.47243203 27.2056047,7.25767535 22.3649423,7.25767535 L22.3649423,7.25767535 Z"/>
    </g>
    <polygon fill="#FAB26C" fill-rule="nonzero" points="155.985 53 105.231 53 105.231 60.262 155.985 60.262"/>
  </g>
</svg>
